<svg width="26" height="26" viewBox="0 0 26 26" fill="none" xmlns="http://www.w3.org/2000/svg">
<rect width="26" height="26" rx="4" fill="#F2F3F5"/>
<path d="M11.7715 5.51074C12.5697 5.24584 13.4303 5.24577 14.2285 5.51074C15.0234 5.7747 15.6474 6.40097 16.2744 7.28027C16.8994 8.15676 17.5902 9.37884 18.4805 10.9541L18.5156 11.0156C19.406 12.5912 20.0969 13.8137 20.5273 14.8047C20.9597 15.8004 21.1748 16.6604 21.0029 17.4863C20.8299 18.3178 20.4034 19.074 19.7822 19.6455C19.1623 20.2158 18.3177 20.4567 17.2549 20.5723C16.198 20.6872 14.8155 20.6875 13.0361 20.6875H12.9629C11.1837 20.6875 9.80094 20.6872 8.74414 20.5723C7.68143 20.4567 6.83764 20.2157 6.21777 19.6455C5.59638 19.0739 5.16915 18.318 4.99609 17.4863C4.82424 16.6603 5.04021 15.8005 5.47266 14.8047C5.90304 13.8137 6.593 12.5911 7.4834 11.0156L7.51855 10.9541C8.40874 9.37893 9.09962 8.15674 9.72461 7.28027C10.3517 6.40087 10.9764 5.77465 11.7715 5.51074ZM12.9961 16C12.5838 16.0001 12.25 16.3359 12.25 16.75C12.2503 17.1639 12.584 17.4999 12.9961 17.5H13.0029C13.4151 17.5 13.7497 17.164 13.75 16.75C13.75 16.3358 13.4153 16 13.0029 16H12.9961ZM13 10C12.5858 10 12.25 10.3358 12.25 10.75V13.75C12.2503 14.164 12.5859 14.5 13 14.5C13.4139 14.4998 13.7497 14.1639 13.75 13.75V10.75C13.75 10.3359 13.4141 10.0002 13 10Z" fill="#707070"/>
</svg>
