<svg width="18" height="18" viewBox="0 0 18 18" fill="none" xmlns="http://www.w3.org/2000/svg">
<path d="M7.77148 1.51074C8.56974 1.24584 9.43027 1.24577 10.2285 1.51074C11.0234 1.7747 11.6474 2.40097 12.2744 3.28027C12.8994 4.15676 13.5902 5.37884 14.4805 6.9541L14.5156 7.01562C15.406 8.59119 16.0969 9.81366 16.5273 10.8047C16.9597 11.8004 17.1748 12.6604 17.0029 13.4863C16.8299 14.3178 16.4034 15.074 15.7822 15.6455C15.1623 16.2158 14.3177 16.4567 13.2549 16.5723C12.198 16.6872 10.8155 16.6875 9.03613 16.6875H8.96289C7.18367 16.6875 5.80094 16.6872 4.74414 16.5723C3.68143 16.4567 2.83764 16.2157 2.21777 15.6455C1.59638 15.0739 1.16915 14.318 0.996094 13.4863C0.824237 12.6603 1.04021 11.8005 1.47266 10.8047C1.90304 9.81368 2.593 8.59115 3.4834 7.01562L3.51855 6.9541C4.40874 5.37893 5.09962 4.15674 5.72461 3.28027C6.35173 2.40087 6.97645 1.77465 7.77148 1.51074ZM8.99609 12C8.58384 12.0001 8.25 12.3359 8.25 12.75C8.25025 13.1639 8.58399 13.4999 8.99609 13.5H9.00293C9.41514 13.5 9.74975 13.164 9.75 12.75C9.75 12.3358 9.41529 12 9.00293 12H8.99609ZM9 6C8.58579 6 8.25 6.33579 8.25 6.75V9.75C8.25025 10.164 8.58594 10.5 9 10.5C9.41391 10.4998 9.74975 10.1639 9.75 9.75V6.75C9.75 6.3359 9.41406 6.00018 9 6Z" fill="#1785CF"/>
</svg>
