<svg width="18" height="18" viewBox="0 0 18 18" fill="none" xmlns="http://www.w3.org/2000/svg">
<path d="M9.04297 1.3125C10.686 1.31249 11.9768 1.31278 12.9844 1.44824C14.0167 1.58708 14.8359 1.87695 15.4795 2.52051C16.1231 3.16407 16.4129 3.98333 16.5518 5.01562C16.6872 6.02317 16.6875 7.31404 16.6875 8.95703V9.04297C16.6875 10.686 16.6872 11.9768 16.5518 12.9844C16.4129 14.0167 16.1231 14.8359 15.4795 15.4795C14.8359 16.1231 14.0167 16.4129 12.9844 16.5518C11.9768 16.6872 10.686 16.6875 9.04297 16.6875H8.95703C7.31404 16.6875 6.02317 16.6872 5.01562 16.5518C3.98333 16.4129 3.16407 16.1231 2.52051 15.4795C1.87695 14.8359 1.58708 14.0167 1.44824 12.9844C1.31278 11.9768 1.31249 10.686 1.3125 9.04297V8.95703C1.31249 7.31404 1.31278 6.02317 1.44824 5.01562C1.58708 3.98333 1.87695 3.16407 2.52051 2.52051C3.16407 1.87695 3.98333 1.58708 5.01562 1.44824C6.02317 1.31278 7.31404 1.31249 8.95703 1.3125H9.04297ZM5.25 9.1875C4.93934 9.1875 4.6875 9.43934 4.6875 9.75V12.75C4.6875 13.0607 4.93934 13.3125 5.25 13.3125C5.56066 13.3125 5.8125 13.0607 5.8125 12.75V9.75C5.8125 9.43934 5.56066 9.1875 5.25 9.1875ZM9 4.6875C8.68934 4.6875 8.4375 4.93934 8.4375 5.25V12.75C8.4375 13.0607 8.68934 13.3125 9 13.3125C9.31066 13.3125 9.5625 13.0607 9.5625 12.75V5.25C9.5625 4.93934 9.31066 4.6875 9 4.6875ZM12.75 7.6875C12.4393 7.6875 12.1875 7.93934 12.1875 8.25V12.75C12.1875 13.0607 12.4393 13.3125 12.75 13.3125C13.0607 13.3125 13.3125 13.0607 13.3125 12.75V8.25C13.3125 7.93934 13.0607 7.6875 12.75 7.6875Z" fill="#1785CF"/>
</svg>
