<svg width="26" height="26" viewBox="0 0 26 26" fill="none" xmlns="http://www.w3.org/2000/svg">
<rect width="26" height="26" rx="4" fill="#F2F3F5"/>
<path d="M13.043 5.3125C14.686 5.31249 15.9768 5.31278 16.9844 5.44824C18.0167 5.58708 18.8359 5.87695 19.4795 6.52051C20.1231 7.16407 20.4129 7.98333 20.5518 9.01562C20.6872 10.0232 20.6875 11.314 20.6875 12.957V13.043C20.6875 14.686 20.6872 15.9768 20.5518 16.9844C20.4129 18.0167 20.1231 18.8359 19.4795 19.4795C18.8359 20.1231 18.0167 20.4129 16.9844 20.5518C15.9768 20.6872 14.686 20.6875 13.043 20.6875H12.957C11.314 20.6875 10.0232 20.6872 9.01562 20.5518C7.98333 20.4129 7.16407 20.1231 6.52051 19.4795C5.87695 18.8359 5.58708 18.0167 5.44824 16.9844C5.31278 15.9768 5.31249 14.686 5.3125 13.043V12.957C5.31249 11.314 5.31278 10.0232 5.44824 9.01562C5.58708 7.98333 5.87695 7.16407 6.52051 6.52051C7.16407 5.87695 7.98333 5.58708 9.01562 5.44824C10.0232 5.31278 11.314 5.31249 12.957 5.3125H13.043ZM9.25 13.1875C8.93934 13.1875 8.6875 13.4393 8.6875 13.75V16.75C8.6875 17.0607 8.93934 17.3125 9.25 17.3125C9.56066 17.3125 9.8125 17.0607 9.8125 16.75V13.75C9.8125 13.4393 9.56066 13.1875 9.25 13.1875ZM13 8.6875C12.6893 8.6875 12.4375 8.93934 12.4375 9.25V16.75C12.4375 17.0607 12.6893 17.3125 13 17.3125C13.3107 17.3125 13.5625 17.0607 13.5625 16.75V9.25C13.5625 8.93934 13.3107 8.6875 13 8.6875ZM16.75 11.6875C16.4393 11.6875 16.1875 11.9393 16.1875 12.25V16.75C16.1875 17.0607 16.4393 17.3125 16.75 17.3125C17.0607 17.3125 17.3125 17.0607 17.3125 16.75V12.25C17.3125 11.9393 17.0607 11.6875 16.75 11.6875Z" fill="#707070"/>
</svg>
