<svg width="26" height="26" viewBox="0 0 26 26" fill="none" xmlns="http://www.w3.org/2000/svg">
<rect width="26" height="26" rx="4" fill="#F2F3F5"/>
<path fill-rule="evenodd" clip-rule="evenodd" d="M16.3429 15.3625C15.3872 15.3625 14.6125 16.1372 14.6125 17.0929C14.6125 18.0485 15.3872 18.8232 16.3429 18.8232C17.2985 18.8232 18.0732 18.0485 18.0732 17.0929C18.0732 16.1372 17.2985 15.3625 16.3429 15.3625ZM13.1875 17.0929C13.1875 15.3502 14.6002 13.9375 16.3429 13.9375C18.0855 13.9375 19.4982 15.3502 19.4982 17.0929C19.4982 17.7061 19.3233 18.2785 19.0205 18.7629L20.1038 19.8462C20.3821 20.1244 20.3821 20.5756 20.1038 20.8538C19.8256 21.1321 19.3744 21.1321 19.0962 20.8538L18.0129 19.7705C17.5285 20.0733 16.9561 20.2482 16.3429 20.2482C14.6002 20.2482 13.1875 18.8355 13.1875 17.0929Z" fill="#707070"/>
<path d="M12.292 4.9375C13.6703 4.93749 14.7628 4.93786 15.6172 5.05273C16.4963 5.17098 17.2084 5.4193 17.7695 5.98047C18.3307 6.54164 18.579 7.25371 18.6973 8.13281C18.8121 8.98722 18.8125 10.0797 18.8125 11.458V13.5967C18.1147 13.1029 17.2626 12.8125 16.3428 12.8125C13.9789 12.8125 12.0625 14.7289 12.0625 17.0928C12.0625 18.859 13.1323 20.3754 14.6592 21.0293C13.9854 21.0622 13.2008 21.0625 12.292 21.0625C10.9138 21.0625 9.73716 21.0621 8.88281 20.9473C8.00371 20.829 7.29164 20.5807 6.73047 20.0195C6.1693 19.4584 5.92098 18.7463 5.80273 17.8672C5.68786 17.0128 5.68749 15.9203 5.6875 14.542V11.458C5.68749 10.0797 5.68786 8.98722 5.80273 8.13281C5.92098 7.25371 6.1693 6.54164 6.73047 5.98047C7.29164 5.4193 8.00371 5.17098 8.88281 5.05273C9.73715 4.93787 10.9138 4.93749 12.292 4.9375ZM9.25 11.6875C8.93934 11.6875 8.6875 11.9393 8.6875 12.25C8.6875 12.5607 8.93934 12.8125 9.25 12.8125H12.25C12.5607 12.8125 12.8125 12.5607 12.8125 12.25C12.8125 11.9393 12.5607 11.6875 12.25 11.6875H9.25ZM9.25 8.6875C8.93934 8.6875 8.6875 8.93934 8.6875 9.25C8.6875 9.56066 8.93934 9.8125 9.25 9.8125H15.25C15.5607 9.8125 15.8125 9.56066 15.8125 9.25C15.8125 8.93934 15.5607 8.6875 15.25 8.6875H9.25Z" fill="#707070"/>
</svg>
