<svg width="18" height="18" viewBox="0 0 18 18" fill="none" xmlns="http://www.w3.org/2000/svg">
<path fill-rule="evenodd" clip-rule="evenodd" d="M12.3429 11.3625C11.3872 11.3625 10.6125 12.1372 10.6125 13.0929C10.6125 14.0485 11.3872 14.8232 12.3429 14.8232C13.2985 14.8232 14.0732 14.0485 14.0732 13.0929C14.0732 12.1372 13.2985 11.3625 12.3429 11.3625ZM9.1875 13.0929C9.1875 11.3502 10.6002 9.9375 12.3429 9.9375C14.0855 9.9375 15.4982 11.3502 15.4982 13.0929C15.4982 13.7061 15.3233 14.2785 15.0205 14.7629L16.1038 15.8462C16.3821 16.1244 16.3821 16.5756 16.1038 16.8538C15.8256 17.1321 15.3744 17.1321 15.0962 16.8538L14.0129 15.7705C13.5285 16.0733 12.9561 16.2482 12.3429 16.2482C10.6002 16.2482 9.1875 14.8355 9.1875 13.0929Z" fill="#1785CF"/>
<path d="M8.29199 0.9375C9.67031 0.937488 10.7628 0.937862 11.6172 1.05273C12.4963 1.17098 13.2084 1.4193 13.7695 1.98047C14.3307 2.54164 14.579 3.25371 14.6973 4.13281C14.8121 4.98722 14.8125 6.0797 14.8125 7.45801V9.59668C14.1147 9.10293 13.2626 8.8125 12.3428 8.8125C9.97886 8.81255 8.06254 10.7289 8.0625 13.0928C8.0625 14.859 9.13227 16.3754 10.6592 17.0293C9.98542 17.0622 9.20084 17.0625 8.29199 17.0625C6.91381 17.0625 5.73716 17.0621 4.88281 16.9473C4.00371 16.829 3.29164 16.5807 2.73047 16.0195C2.1693 15.4584 1.92098 14.7463 1.80273 13.8672C1.68786 13.0128 1.68749 11.9203 1.6875 10.542V7.45801C1.68749 6.07969 1.68786 4.98722 1.80273 4.13281C1.92098 3.25371 2.1693 2.54164 2.73047 1.98047C3.29164 1.4193 4.00371 1.17098 4.88281 1.05273C5.73715 0.937871 6.91381 0.937488 8.29199 0.9375ZM5.25 7.6875C4.93934 7.6875 4.6875 7.93934 4.6875 8.25C4.6875 8.56066 4.93934 8.8125 5.25 8.8125H8.25C8.56066 8.8125 8.8125 8.56066 8.8125 8.25C8.8125 7.93934 8.56066 7.6875 8.25 7.6875H5.25ZM5.25 4.6875C4.93934 4.6875 4.6875 4.93934 4.6875 5.25C4.6875 5.56066 4.93934 5.8125 5.25 5.8125H11.25C11.5607 5.8125 11.8125 5.56066 11.8125 5.25C11.8125 4.93934 11.5607 4.6875 11.25 4.6875H5.25Z" fill="#1785CF"/>
</svg>
