<svg width="24" height="24" viewBox="0 0 24 24" fill="none" xmlns="http://www.w3.org/2000/svg">
<path d="M13.0449 2.25C14.8815 2.24999 16.3217 2.25028 17.4639 2.37402C18.6292 2.50032 19.5736 2.76287 20.3799 3.34863C20.8678 3.70317 21.2968 4.1322 21.6514 4.62012C22.2371 5.42636 22.4997 6.37077 22.626 7.53613C22.7497 8.67825 22.75 10.1186 22.75 11.9551V12.0449C22.75 13.8814 22.7497 15.3218 22.626 16.4639C22.4997 17.6292 22.2371 18.5736 21.6514 19.3799C21.2968 19.8678 20.8678 20.2968 20.3799 20.6514C19.5736 21.2371 18.6292 21.4997 17.4639 21.626C16.3218 21.7497 14.8814 21.75 13.0449 21.75H10.8496C10.5673 21.75 10.4258 21.75 10.3379 21.6621C10.25 21.5742 10.25 21.4329 10.25 21.1504V2.84961C10.25 2.56708 10.25 2.42576 10.3379 2.33789C10.4258 2.25003 10.5673 2.25001 10.8496 2.25H13.0449ZM8.14062 2.27441C8.4255 2.266 8.56817 2.26126 8.65918 2.34961C8.75019 2.43798 8.75 2.58219 8.75 2.87012V21.1299C8.75 21.4178 8.75019 21.562 8.65918 21.6504C8.56817 21.7387 8.42547 21.734 8.14062 21.7256C7.54855 21.7081 7.01587 21.678 6.53613 21.626C5.37076 21.4997 4.42636 21.2371 3.62012 20.6514C3.1322 20.2968 2.70317 19.8678 2.34863 19.3799C1.76287 18.5737 1.50032 17.6292 1.37402 16.4639C1.25028 15.3217 1.24999 13.8815 1.25 12.0449V11.9551C1.24999 10.1185 1.25028 8.67827 1.37402 7.53613C1.50032 6.37075 1.76286 5.42636 2.34863 4.62012C2.70325 4.13209 3.13207 3.70225 3.62012 3.34766C4.42632 2.76196 5.37084 2.50031 6.53613 2.37402C7.01587 2.32205 7.54855 2.29189 8.14062 2.27441ZM18.2578 9.34668C17.8972 8.92843 17.265 8.88164 16.8467 9.24219L15.584 10.332C15.359 10.5258 15.1192 10.7312 14.9443 10.9287C14.7467 11.152 14.5 11.5066 14.5 12C14.5 12.4934 14.7467 12.848 14.9443 13.0713C15.1192 13.2688 15.359 13.4742 15.584 13.668L16.8467 14.7578C17.265 15.1184 17.8972 15.0716 18.2578 14.6533C18.6184 14.235 18.5716 13.6028 18.1533 13.2422L16.7129 12L18.1533 10.7578C18.5716 10.3972 18.6184 9.76499 18.2578 9.34668ZM4.25 10.25C3.83579 10.25 3.5 10.5858 3.5 11C3.5 11.4142 3.83579 11.75 4.25 11.75H5.75C6.16421 11.75 6.5 11.4142 6.5 11C6.5 10.5858 6.16421 10.25 5.75 10.25H4.25ZM4.25 6.25C3.83579 6.25 3.5 6.58579 3.5 7C3.5 7.41421 3.83579 7.75 4.25 7.75H5.75C6.16421 7.75 6.5 7.41421 6.5 7C6.5 6.58579 6.16421 6.25 5.75 6.25H4.25Z" fill="#707070"/>
</svg>
