<svg width="26" height="26" viewBox="0 0 26 26" fill="none" xmlns="http://www.w3.org/2000/svg">
<rect width="26" height="26" rx="4" fill="#F2F3F5"/>
<g clip-path="url(#clip0_1508_147161)">
<path d="M8.52742 4.9375C9.08178 4.93749 9.53741 4.93748 9.90603 4.97253C10.2891 5.00895 10.6358 5.08715 10.9513 5.28044C11.2644 5.47233 11.5277 5.73561 11.7196 6.04874C11.9129 6.36416 11.991 6.71092 12.0275 7.09397C12.0625 7.46258 12.0625 7.91821 12.0625 8.47255V8.47258V8.52742V8.52745C12.0625 9.0818 12.0625 9.53742 12.0275 9.90603C11.991 10.2891 11.9129 10.6358 11.7196 10.9513C11.5277 11.2644 11.2644 11.5277 10.9513 11.7196C10.6358 11.9129 10.2891 11.991 9.90603 12.0275C9.53742 12.0625 9.0818 12.0625 8.52745 12.0625H8.52742H8.47258H8.47255C7.91821 12.0625 7.46258 12.0625 7.09397 12.0275C6.71092 11.991 6.36416 11.9129 6.04874 11.7196C5.73561 11.5277 5.47233 11.2644 5.28044 10.9513C5.08715 10.6358 5.00895 10.2891 4.97253 9.90603C4.93748 9.53741 4.93749 9.08178 4.9375 8.52742V8.52741V8.47259V8.47258C4.93749 7.91823 4.93748 7.46259 4.97253 7.09397C5.00895 6.71092 5.08715 6.36416 5.28044 6.04874C5.47233 5.73561 5.73561 5.47233 6.04874 5.28044C6.36416 5.08715 6.71092 5.00895 7.09397 4.97253C7.46259 4.93748 7.91822 4.93749 8.47258 4.9375H8.47259H8.52741H8.52742Z" fill="#707070"/>
<path d="M8.52742 13.9375C9.08178 13.9375 9.53741 13.9375 9.90603 13.9725C10.2891 14.009 10.6358 14.0872 10.9513 14.2804C11.2644 14.4723 11.5277 14.7356 11.7196 15.0487C11.9129 15.3642 11.991 15.7109 12.0275 16.094C12.0625 16.4626 12.0625 16.9182 12.0625 17.4725V17.4726V17.5274V17.5275C12.0625 18.0818 12.0625 18.5374 12.0275 18.906C11.991 19.2891 11.9129 19.6358 11.7196 19.9513C11.5277 20.2644 11.2644 20.5277 10.9513 20.7196C10.6358 20.9129 10.2891 20.991 9.90603 21.0275C9.53742 21.0625 9.0818 21.0625 8.52745 21.0625H8.52742H8.47258H8.47255C7.91821 21.0625 7.46258 21.0625 7.09397 21.0275C6.71092 20.991 6.36416 20.9129 6.04874 20.7196C5.73561 20.5277 5.47233 20.2644 5.28044 19.9513C5.08715 19.6358 5.00895 19.2891 4.97253 18.906C4.93748 18.5374 4.93749 18.0818 4.9375 17.5274V17.5274V17.4726V17.4726C4.93749 16.9182 4.93748 16.4626 4.97253 16.094C5.00895 15.7109 5.08715 15.3642 5.28044 15.0487C5.47233 14.7356 5.73561 14.4723 6.04874 14.2804C6.36416 14.0872 6.71092 14.009 7.09397 13.9725C7.46259 13.9375 7.91822 13.9375 8.47258 13.9375H8.47259H8.52741H8.52742Z" fill="#707070"/>
<path d="M17.5274 4.9375C18.0818 4.93749 18.5374 4.93748 18.906 4.97253C19.2891 5.00895 19.6358 5.08715 19.9513 5.28044C20.2644 5.47233 20.5277 5.73561 20.7196 6.04874C20.9129 6.36416 20.991 6.71092 21.0275 7.09397C21.0625 7.46258 21.0625 7.91821 21.0625 8.47255V8.47258V8.52742V8.52745C21.0625 9.0818 21.0625 9.53742 21.0275 9.90603C20.991 10.2891 20.9129 10.6358 20.7196 10.9513C20.5277 11.2644 20.2644 11.5277 19.9513 11.7196C19.6358 11.9129 19.2891 11.991 18.906 12.0275C18.5374 12.0625 18.0818 12.0625 17.5275 12.0625H17.5274H17.4726H17.4725C16.9182 12.0625 16.4626 12.0625 16.094 12.0275C15.7109 11.991 15.3642 11.9129 15.0487 11.7196C14.7356 11.5277 14.4723 11.2644 14.2804 10.9513C14.0872 10.6358 14.009 10.2891 13.9725 9.90603C13.9375 9.53741 13.9375 9.08178 13.9375 8.52742V8.52741V8.47259V8.47258C13.9375 7.91823 13.9375 7.46259 13.9725 7.09397C14.009 6.71092 14.0872 6.36416 14.2804 6.04874C14.4723 5.73561 14.7356 5.47233 15.0487 5.28044C15.3642 5.08715 15.7109 5.00895 16.094 4.97253C16.4626 4.93748 16.9182 4.93749 17.4726 4.9375H17.4726H17.5274H17.5274Z" fill="#707070"/>
<path d="M17.5274 13.9375C18.0818 13.9375 18.5374 13.9375 18.906 13.9725C19.2891 14.009 19.6358 14.0872 19.9513 14.2804C20.2644 14.4723 20.5277 14.7356 20.7196 15.0487C20.9129 15.3642 20.991 15.7109 21.0275 16.094C21.0625 16.4626 21.0625 16.9182 21.0625 17.4725V17.4726V17.5274V17.5275C21.0625 18.0818 21.0625 18.5374 21.0275 18.906C20.991 19.2891 20.9129 19.6358 20.7196 19.9513C20.5277 20.2644 20.2644 20.5277 19.9513 20.7196C19.6358 20.9129 19.2891 20.991 18.906 21.0275C18.5374 21.0625 18.0818 21.0625 17.5275 21.0625H17.5274H17.4726H17.4725C16.9182 21.0625 16.4626 21.0625 16.094 21.0275C15.7109 20.991 15.3642 20.9129 15.0487 20.7196C14.7356 20.5277 14.4723 20.2644 14.2804 19.9513C14.0872 19.6358 14.009 19.2891 13.9725 18.906C13.9375 18.5374 13.9375 18.0818 13.9375 17.5274V17.5274V17.4726V17.4726C13.9375 16.9182 13.9375 16.4626 13.9725 16.094C14.009 15.7109 14.0872 15.3642 14.2804 15.0487C14.4723 14.7356 14.7356 14.4723 15.0487 14.2804C15.3642 14.0872 15.7109 14.009 16.094 13.9725C16.4626 13.9375 16.9182 13.9375 17.4726 13.9375H17.4726H17.5274H17.5274Z" fill="#707070"/>
</g>
<defs>
<clipPath id="clip0_1508_147161">
<rect width="18" height="18" fill="white" transform="translate(4 4)"/>
</clipPath>
</defs>
</svg>
