<svg width="18" height="18" viewBox="0 0 18 18" fill="none" xmlns="http://www.w3.org/2000/svg">
<g clip-path="url(#clip0_1433_146188)">
<path d="M4.52742 0.9375C5.08178 0.937491 5.53741 0.937483 5.90603 0.972532C6.28908 1.00895 6.63584 1.08715 6.95126 1.28044C7.26439 1.47233 7.52767 1.73561 7.71956 2.04874C7.91285 2.36416 7.99105 2.71092 8.02747 3.09397C8.06252 3.46258 8.06251 3.91821 8.0625 4.47255V4.47258V4.52742V4.52745C8.06251 5.0818 8.06252 5.53742 8.02747 5.90603C7.99105 6.28908 7.91285 6.63584 7.71956 6.95126C7.52767 7.26439 7.26439 7.52767 6.95126 7.71956C6.63584 7.91285 6.28908 7.99105 5.90603 8.02747C5.53742 8.06252 5.0818 8.06251 4.52745 8.0625H4.52742H4.47258H4.47255C3.91821 8.06251 3.46258 8.06252 3.09397 8.02747C2.71092 7.99105 2.36416 7.91285 2.04874 7.71956C1.73561 7.52767 1.47233 7.26439 1.28044 6.95126C1.08715 6.63584 1.00895 6.28908 0.972532 5.90603C0.937483 5.53741 0.937491 5.08178 0.9375 4.52742V4.52741V4.47259V4.47258C0.937491 3.91823 0.937483 3.46259 0.972532 3.09397C1.00895 2.71092 1.08715 2.36416 1.28044 2.04874C1.47233 1.73561 1.73561 1.47233 2.04874 1.28044C2.36416 1.08715 2.71092 1.00895 3.09397 0.972532C3.46259 0.937483 3.91822 0.937491 4.47258 0.9375H4.47259H4.52741H4.52742Z" fill="#1785CF"/>
<path d="M4.52742 9.9375C5.08178 9.93749 5.53741 9.93748 5.90603 9.97253C6.28908 10.009 6.63584 10.0872 6.95126 10.2804C7.26439 10.4723 7.52767 10.7356 7.71956 11.0487C7.91285 11.3642 7.99105 11.7109 8.02747 12.094C8.06252 12.4626 8.06251 12.9182 8.0625 13.4725V13.4726V13.5274V13.5275C8.06251 14.0818 8.06252 14.5374 8.02747 14.906C7.99105 15.2891 7.91285 15.6358 7.71956 15.9513C7.52767 16.2644 7.26439 16.5277 6.95126 16.7196C6.63584 16.9129 6.28908 16.991 5.90603 17.0275C5.53742 17.0625 5.0818 17.0625 4.52745 17.0625H4.52742H4.47258H4.47255C3.91821 17.0625 3.46258 17.0625 3.09397 17.0275C2.71092 16.991 2.36416 16.9129 2.04874 16.7196C1.73561 16.5277 1.47233 16.2644 1.28044 15.9513C1.08715 15.6358 1.00895 15.2891 0.972532 14.906C0.937483 14.5374 0.937491 14.0818 0.9375 13.5274V13.5274V13.4726V13.4726C0.937491 12.9182 0.937483 12.4626 0.972532 12.094C1.00895 11.7109 1.08715 11.3642 1.28044 11.0487C1.47233 10.7356 1.73561 10.4723 2.04874 10.2804C2.36416 10.0872 2.71092 10.009 3.09397 9.97253C3.46259 9.93748 3.91822 9.93749 4.47258 9.9375H4.47259H4.52741H4.52742Z" fill="#1785CF"/>
<path d="M13.5274 0.9375C14.0818 0.937491 14.5374 0.937483 14.906 0.972532C15.2891 1.00895 15.6358 1.08715 15.9513 1.28044C16.2644 1.47233 16.5277 1.73561 16.7196 2.04874C16.9129 2.36416 16.991 2.71092 17.0275 3.09397C17.0625 3.46258 17.0625 3.91821 17.0625 4.47255V4.47258V4.52742V4.52745C17.0625 5.0818 17.0625 5.53742 17.0275 5.90603C16.991 6.28908 16.9129 6.63584 16.7196 6.95126C16.5277 7.26439 16.2644 7.52767 15.9513 7.71956C15.6358 7.91285 15.2891 7.99105 14.906 8.02747C14.5374 8.06252 14.0818 8.06251 13.5275 8.0625H13.5274H13.4726H13.4725C12.9182 8.06251 12.4626 8.06252 12.094 8.02747C11.7109 7.99105 11.3642 7.91285 11.0487 7.71956C10.7356 7.52767 10.4723 7.26439 10.2804 6.95126C10.0872 6.63584 10.009 6.28908 9.97253 5.90603C9.93748 5.53741 9.93749 5.08178 9.9375 4.52742V4.52741V4.47259V4.47258C9.93749 3.91823 9.93748 3.46259 9.97253 3.09397C10.009 2.71092 10.0872 2.36416 10.2804 2.04874C10.4723 1.73561 10.7356 1.47233 11.0487 1.28044C11.3642 1.08715 11.7109 1.00895 12.094 0.972532C12.4626 0.937483 12.9182 0.937491 13.4726 0.9375H13.4726H13.5274H13.5274Z" fill="#1785CF"/>
<path d="M13.5274 9.9375C14.0818 9.93749 14.5374 9.93748 14.906 9.97253C15.2891 10.009 15.6358 10.0872 15.9513 10.2804C16.2644 10.4723 16.5277 10.7356 16.7196 11.0487C16.9129 11.3642 16.991 11.7109 17.0275 12.094C17.0625 12.4626 17.0625 12.9182 17.0625 13.4725V13.4726V13.5274V13.5275C17.0625 14.0818 17.0625 14.5374 17.0275 14.906C16.991 15.2891 16.9129 15.6358 16.7196 15.9513C16.5277 16.2644 16.2644 16.5277 15.9513 16.7196C15.6358 16.9129 15.2891 16.991 14.906 17.0275C14.5374 17.0625 14.0818 17.0625 13.5275 17.0625H13.5274H13.4726H13.4725C12.9182 17.0625 12.4626 17.0625 12.094 17.0275C11.7109 16.991 11.3642 16.9129 11.0487 16.7196C10.7356 16.5277 10.4723 16.2644 10.2804 15.9513C10.0872 15.6358 10.009 15.2891 9.97253 14.906C9.93748 14.5374 9.93749 14.0818 9.9375 13.5274V13.5274V13.4726V13.4726C9.93749 12.9182 9.93748 12.4626 9.97253 12.094C10.009 11.7109 10.0872 11.3642 10.2804 11.0487C10.4723 10.7356 10.7356 10.4723 11.0487 10.2804C11.3642 10.0872 11.7109 10.009 12.094 9.97253C12.4626 9.93748 12.9182 9.93749 13.4726 9.9375H13.4726H13.5274H13.5274Z" fill="#1785CF"/>
</g>
<defs>
<clipPath id="clip0_1433_146188">
<rect width="18" height="18" fill="white"/>
</clipPath>
</defs>
</svg>
