<svg width="26" height="26" viewBox="0 0 26 26" fill="none" xmlns="http://www.w3.org/2000/svg">
<rect width="26" height="26" rx="4" fill="#F2F3F5"/>
<g clip-path="url(#clip0_1508_147252)">
<path d="M13 4.9375C17.4528 4.9375 21.0625 8.5472 21.0625 13C21.0625 17.4528 17.4528 21.0625 13 21.0625C8.5472 21.0625 4.9375 17.4528 4.9375 13C4.9375 8.5472 8.5472 4.9375 13 4.9375ZM12.9971 15.625C12.5847 15.625 12.25 15.9608 12.25 16.375C12.25 16.7892 12.5847 17.125 12.9971 17.125H13.0029C13.4153 17.125 13.75 16.7892 13.75 16.375C13.75 15.9608 13.4153 15.625 13.0029 15.625H12.9971ZM13 8.875C11.7574 8.875 10.75 9.88236 10.75 11.125C10.75 11.5392 11.0858 11.875 11.5 11.875C11.8882 11.875 12.2075 11.5801 12.2461 11.2021L12.2539 11.0479C12.2925 10.6699 12.6118 10.375 13 10.375C13.4142 10.375 13.75 10.7108 13.75 11.125C13.75 11.2752 13.7065 11.413 13.6318 11.5293C13.5433 11.6669 13.4307 11.8129 13.292 11.9854C13.2704 12.0122 13.2477 12.0399 13.2246 12.0684C13.1083 12.2123 12.9763 12.3753 12.8564 12.54C12.5745 12.9276 12.25 13.464 12.25 14.125C12.25 14.5392 12.5858 14.875 13 14.875C13.4142 14.875 13.75 14.5392 13.75 14.125C13.75 13.9578 13.8323 13.7477 14.0693 13.4219C14.1647 13.2909 14.268 13.1638 14.3838 13.0205C14.4087 12.9897 14.4338 12.9573 14.46 12.9248C14.5998 12.751 14.7571 12.5523 14.8926 12.3418C15.1185 11.9907 15.25 11.5718 15.25 11.125C15.25 9.88236 14.2426 8.875 13 8.875Z" fill="#707070"/>
</g>
<defs>
<clipPath id="clip0_1508_147252">
<rect width="18" height="18" fill="white" transform="translate(4 4)"/>
</clipPath>
</defs>
</svg>
