<svg width="18" height="18" viewBox="0 0 18 18" fill="none" xmlns="http://www.w3.org/2000/svg">
<g clip-path="url(#clip0_1433_146197)">
<path fill-rule="evenodd" clip-rule="evenodd" d="M13.4063 8.90625C13.8206 8.90625 14.1563 9.24204 14.1563 9.65625V9.95523C14.7116 10.0829 15.2136 10.3493 15.6198 10.7167L16.0008 10.4718C16.3492 10.2478 16.8132 10.3487 17.0372 10.6971C17.2612 11.0455 17.1603 11.5096 16.8119 11.7336L16.4638 11.9574C16.5882 12.2925 16.6563 12.6542 16.6563 13.0312C16.6563 13.4084 16.5882 13.7702 16.4637 14.1053L16.8116 14.3289C17.16 14.5529 17.2609 15.017 17.0369 15.3654C16.8129 15.7138 16.3489 15.8147 16.0004 15.5907L15.6196 15.3459C15.2135 15.7132 14.7116 15.9796 14.1563 16.1073V16.4062C14.1563 16.8205 13.8206 17.1562 13.4063 17.1562C12.9921 17.1562 12.6563 16.8205 12.6563 16.4062V16.1073C12.1011 15.9796 11.5992 15.7132 11.1931 15.3459L10.8122 15.5907C10.4638 15.8147 9.99978 15.7138 9.77579 15.3654C9.55179 15.017 9.65265 14.5529 10.0011 14.3289L10.349 14.1053C10.2245 13.7702 10.1563 13.4084 10.1563 13.0312C10.1563 12.6542 10.2245 12.2925 10.3489 11.9574L10.0008 11.7336C9.65234 11.5096 9.55147 11.0455 9.77547 10.6971C9.99946 10.3487 10.4635 10.2478 10.8119 10.4718L11.1929 10.7167C11.599 10.3493 12.1011 10.0829 12.6563 9.95523V9.65625C12.6563 9.24204 12.9921 8.90625 13.4063 8.90625ZM13.4063 11.3705C12.7877 11.3705 12.2524 11.6736 11.9425 12.121C11.7605 12.3837 11.6563 12.6957 11.6563 13.0312C11.6563 13.3668 11.7605 13.6789 11.9426 13.9416C12.2525 14.3889 12.7877 14.692 13.4063 14.692C14.0249 14.692 14.5602 14.3889 14.8701 13.9416C15.0521 13.6789 15.1563 13.3669 15.1563 13.0312C15.1563 12.6957 15.0522 12.3837 14.8702 12.121C14.5603 11.6736 14.025 11.3705 13.4063 11.3705Z" fill="#1785CF"/>
<path d="M8.59375 0.84375C10.0568 0.843741 11.209 0.843709 12.1094 0.958008C13.0311 1.07505 13.7742 1.32055 14.3623 1.87598C14.9549 2.43567 15.2206 3.14981 15.3467 4.03516C15.4686 4.89162 15.4688 5.98509 15.4688 7.36133V9.02148C15.4688 9.1255 15.3582 9.19339 15.2637 9.15039C15.2268 9.13343 15.1985 9.101 15.1855 9.0625C14.9371 8.31809 14.2342 7.78125 13.4062 7.78125C12.6292 7.78129 11.9631 8.25424 11.6787 8.92773C11.6344 9.03274 11.6115 9.08492 11.584 9.11426C11.5565 9.14355 11.511 9.1664 11.4199 9.21191C11.3886 9.22759 11.3571 9.24435 11.3262 9.26074C11.2282 9.31265 11.1788 9.33817 11.1357 9.34277C11.0927 9.34731 11.0331 9.33037 10.9141 9.29688C10.1416 9.07953 9.28567 9.37869 8.8291 10.0889C8.38702 10.7766 8.45138 11.6444 8.92676 12.2549C9.00214 12.3517 9.0397 12.4003 9.05176 12.4414C9.06379 12.4825 9.05883 12.5378 9.04883 12.6475C9.03731 12.774 9.03125 12.902 9.03125 13.0312C9.03125 13.1608 9.03726 13.2892 9.04883 13.416C9.0588 13.5253 9.06368 13.5801 9.05176 13.6211C9.03971 13.6622 9.00206 13.7109 8.92676 13.8076C8.4516 14.418 8.38719 15.286 8.8291 15.9736C8.85332 16.0119 8.88514 16.0577 8.92285 16.1084C9.1822 16.4572 9.31275 16.6321 9.32422 16.6602C9.38797 16.8203 9.33937 16.9165 9.17285 16.9609C9.14436 16.9685 8.96076 16.9688 8.59375 16.9688H7.71875C6.25575 16.9688 5.1035 16.9688 4.20312 16.8545C3.28139 16.7375 2.53829 16.4919 1.9502 15.9365C1.35764 15.3768 1.09186 14.6627 0.96582 13.7773C0.843898 12.9209 0.843736 11.8274 0.84375 10.4512V7.36133C0.843737 5.98508 0.843897 4.89163 0.96582 4.03516C1.09186 3.14982 1.35764 2.43567 1.9502 1.87598C2.53829 1.32055 3.28139 1.07505 4.20312 0.958008C5.1035 0.843706 6.25575 0.843741 7.71875 0.84375H8.59375ZM5.15625 8.15625C4.74204 8.15626 4.40625 8.49204 4.40625 8.90625C4.40625 9.32046 4.74204 9.65624 5.15625 9.65625H7.40625C7.82046 9.65625 8.15625 9.32046 8.15625 8.90625C8.15625 8.49204 7.82046 8.15625 7.40625 8.15625H5.15625ZM5.15625 4.40625C4.74204 4.40626 4.40625 4.74204 4.40625 5.15625C4.40625 5.57046 4.74204 5.90624 5.15625 5.90625H11.1562C11.5705 5.90625 11.9062 5.57046 11.9062 5.15625C11.9062 4.74204 11.5705 4.40625 11.1562 4.40625H5.15625Z" fill="#1785CF"/>
</g>
<defs>
<clipPath id="clip0_1433_146197">
<rect width="18" height="18" fill="white"/>
</clipPath>
</defs>
</svg>
