<svg width="26" height="26" viewBox="0 0 26 26" fill="none" xmlns="http://www.w3.org/2000/svg">
<rect width="26" height="26" rx="4" fill="#F2F3F5"/>
<g clip-path="url(#clip0_1508_147213)">
<path fill-rule="evenodd" clip-rule="evenodd" d="M17.4063 12.9062C17.8206 12.9062 18.1563 13.242 18.1563 13.6562V13.9552C18.7116 14.0829 19.2136 14.3493 19.6198 14.7167L20.0008 14.4718C20.3492 14.2478 20.8132 14.3487 21.0372 14.6971C21.2612 15.0455 21.1603 15.5096 20.8119 15.7336L20.4638 15.9574C20.5882 16.2925 20.6563 16.6542 20.6563 17.0312C20.6563 17.4084 20.5882 17.7702 20.4637 18.1053L20.8116 18.3289C21.16 18.5529 21.2609 19.017 21.0369 19.3654C20.8129 19.7138 20.3489 19.8147 20.0004 19.5907L19.6196 19.3459C19.2135 19.7132 18.7116 19.9796 18.1563 20.1073V20.4062C18.1563 20.8205 17.8206 21.1562 17.4063 21.1562C16.9921 21.1562 16.6563 20.8205 16.6563 20.4062V20.1073C16.1011 19.9796 15.5992 19.7132 15.1931 19.3459L14.8122 19.5907C14.4638 19.8147 13.9998 19.7138 13.7758 19.3654C13.5518 19.017 13.6527 18.5529 14.0011 18.3289L14.349 18.1053C14.2245 17.7702 14.1563 17.4084 14.1563 17.0312C14.1563 16.6542 14.2245 16.2925 14.3489 15.9574L14.0008 15.7336C13.6523 15.5096 13.5515 15.0455 13.7755 14.6971C13.9995 14.3487 14.4635 14.2478 14.8119 14.4718L15.1929 14.7167C15.599 14.3493 16.1011 14.0829 16.6563 13.9552V13.6562C16.6563 13.242 16.9921 12.9062 17.4063 12.9062ZM17.4063 15.3705C16.7877 15.3705 16.2524 15.6736 15.9425 16.121C15.7605 16.3837 15.6563 16.6957 15.6563 17.0312C15.6563 17.3669 15.7605 17.6789 15.9426 17.9416C16.2525 18.3889 16.7877 18.692 17.4063 18.692C18.0249 18.692 18.5602 18.3889 18.8701 17.9416C19.0521 17.6789 19.1563 17.3669 19.1563 17.0312C19.1563 16.6957 19.0522 16.3837 18.8702 16.121C18.5603 15.6736 18.025 15.3705 17.4063 15.3705Z" fill="#707070"/>
<path d="M12.5938 4.84375C14.0568 4.84374 15.209 4.84371 16.1094 4.95801C17.0311 5.07505 17.7742 5.32055 18.3623 5.87598C18.9549 6.43567 19.2206 7.14981 19.3467 8.03516C19.4686 8.89162 19.4688 9.98509 19.4688 11.3613V13.0215C19.4688 13.1255 19.3582 13.1934 19.2637 13.1504C19.2268 13.1334 19.1985 13.101 19.1855 13.0625C18.9371 12.3181 18.2342 11.7812 17.4062 11.7812C16.6292 11.7813 15.9631 12.2542 15.6787 12.9277C15.6344 13.0327 15.6115 13.0849 15.584 13.1143C15.5565 13.1435 15.511 13.1664 15.4199 13.2119C15.3886 13.2276 15.3571 13.2443 15.3262 13.2607C15.2282 13.3127 15.1788 13.3382 15.1357 13.3428C15.0927 13.3473 15.0331 13.3304 14.9141 13.2969C14.1416 13.0795 13.2857 13.3787 12.8291 14.0889C12.387 14.7766 12.4514 15.6444 12.9268 16.2549C13.0021 16.3517 13.0397 16.4003 13.0518 16.4414C13.0638 16.4825 13.0588 16.5378 13.0488 16.6475C13.0373 16.774 13.0313 16.902 13.0312 17.0312C13.0312 17.1608 13.0373 17.2892 13.0488 17.416C13.0588 17.5253 13.0637 17.5801 13.0518 17.6211C13.0397 17.6622 13.0021 17.7109 12.9268 17.8076C12.4516 18.418 12.3872 19.286 12.8291 19.9736C12.8533 20.0119 12.8851 20.0577 12.9229 20.1084C13.1822 20.4572 13.3127 20.6321 13.3242 20.6602C13.388 20.8203 13.3394 20.9165 13.1729 20.9609C13.1444 20.9685 12.9608 20.9688 12.5938 20.9688H11.7188C10.2557 20.9688 9.1035 20.9688 8.20312 20.8545C7.28139 20.7375 6.53829 20.4919 5.9502 19.9365C5.35764 19.3768 5.09186 18.6627 4.96582 17.7773C4.8439 16.9209 4.84374 15.8274 4.84375 14.4512V11.3613C4.84374 9.98508 4.8439 8.89163 4.96582 8.03516C5.09186 7.14982 5.35764 6.43567 5.9502 5.87598C6.53829 5.32055 7.28139 5.07505 8.20312 4.95801C9.1035 4.84371 10.2558 4.84374 11.7188 4.84375H12.5938ZM9.15625 12.1562C8.74204 12.1563 8.40625 12.492 8.40625 12.9062C8.40625 13.3205 8.74204 13.6562 9.15625 13.6562H11.4062C11.8205 13.6562 12.1562 13.3205 12.1562 12.9062C12.1562 12.492 11.8205 12.1562 11.4062 12.1562H9.15625ZM9.15625 8.40625C8.74204 8.40626 8.40625 8.74204 8.40625 9.15625C8.40625 9.57046 8.74204 9.90624 9.15625 9.90625H15.1562C15.5705 9.90625 15.9062 9.57046 15.9062 9.15625C15.9062 8.74204 15.5705 8.40625 15.1562 8.40625H9.15625Z" fill="#707070"/>
</g>
<defs>
<clipPath id="clip0_1508_147213">
<rect width="18" height="18" fill="white" transform="translate(4 4)"/>
</clipPath>
</defs>
</svg>
