<svg width="18" height="18" viewBox="0 0 18 18" fill="none" xmlns="http://www.w3.org/2000/svg">
<path d="M9.00098 0.9375C11.8705 0.937502 14.6079 2.63483 15.7539 5.31348C16.8191 7.80336 16.2446 9.92758 15.0439 11.7461C14.0481 13.2544 12.5902 14.5969 11.2793 15.8047C11.0465 16.0192 10.8178 16.2294 10.5977 16.4355C10.1664 16.8393 9.59376 17.0625 9.00098 17.0625C8.40819 17.0625 7.83557 16.8393 7.4043 16.4355L7.40234 16.4346C7.16954 16.2153 6.92778 15.9912 6.68066 15.7627C5.384 14.5636 3.94647 13.2344 2.96094 11.7451C1.75887 9.92846 1.18158 7.80645 2.24805 5.31348C3.39402 2.63483 6.13141 0.9375 9.00098 0.9375ZM12.7109 6.13574C12.5786 5.74325 12.1523 5.53168 11.7598 5.66406C11.1709 5.86273 10.6106 6.24137 10.1221 6.64941C9.62648 7.06335 9.16422 7.54301 8.77246 7.99023C8.50965 8.29027 8.27378 8.58068 8.07715 8.83398C7.90289 8.64662 7.72891 8.50471 7.56152 8.39844C7.37382 8.2793 7.20227 8.20973 7.05957 8.1709C6.9887 8.15161 6.88175 8.12502 6.75 8.125C6.33585 8.125 6.00011 8.46088 6 8.875C6 9.26388 6.29583 9.58344 6.6748 9.62109C6.68853 9.62615 6.71707 9.63917 6.75781 9.66504C6.87204 9.73759 7.11854 9.94053 7.39844 10.4736C7.52146 10.708 7.75913 10.8602 8.02344 10.874C8.28753 10.8877 8.53971 10.761 8.68652 10.541C8.74389 10.459 8.91205 10.2192 9.01953 10.0742C9.23535 9.78304 9.54089 9.38893 9.90039 8.97852C10.2613 8.56653 10.6678 8.1484 11.084 7.80078C11.5073 7.44725 11.9018 7.19982 12.2393 7.08594C12.6316 6.95359 12.8431 6.52813 12.7109 6.13574Z" fill="#1785CF"/>
</svg>
