<svg width="38" height="38" viewBox="0 0 38 38" fill="none" xmlns="http://www.w3.org/2000/svg">
<g filter="url(#filter0_i_1505_146974)">
<rect width="38" height="38" rx="10" fill="#E8F3FA"/>
<path fill-rule="evenodd" clip-rule="evenodd" d="M14.2374 7.8566C15.5437 7.14314 17.0866 6.46094 18.9978 6.46094C20.9091 6.46094 22.4525 7.14314 23.7595 7.85656C25.1459 8.61335 26.1008 9.28462 27.2221 9.66162C27.9745 9.91458 28.9155 10.1245 29.4532 10.7544C29.8836 11.2586 29.9806 11.9255 30.0884 12.5558C31.3498 19.933 28.4628 28.0807 21.1229 31.0447C20.4253 31.3265 19.8862 31.5443 19.0014 31.5443C18.1167 31.5443 17.5775 31.3265 16.8798 31.0447C9.54013 28.0807 6.65106 19.9261 7.91085 12.5559C8.01855 11.9256 8.11556 11.2588 8.54587 10.7547C9.08352 10.1247 10.0245 9.91465 10.7769 9.66158C11.8978 9.28457 12.8516 8.61351 14.2374 7.8566ZM11.5058 11.8227C11.2602 11.9053 11.0295 11.9866 10.8296 12.0597C10.576 12.1524 10.4492 12.1988 10.3487 12.319C10.2298 12.4611 10.2148 12.6289 10.1546 12.981C9.4596 17.0445 10.0262 20.8412 11.7579 23.8121C11.9501 24.1418 12.0462 24.3067 12.2176 24.329C12.3891 24.3512 12.5299 24.211 12.8114 23.9304L24.7074 12.075C25.025 11.7585 25.1837 11.6003 25.1592 11.4273C25.1347 11.2544 24.9326 11.1432 24.5285 10.9208C23.863 10.5546 23.232 10.1672 22.6647 9.85755C21.4787 9.21015 20.3398 8.74129 18.998 8.74129C17.6564 8.74129 16.5182 9.21007 15.3331 9.85735C14.2275 10.4612 12.8795 11.3606 11.5058 11.8227Z" fill="#1785CF"/>
</g>
<defs>
<filter id="filter0_i_1505_146974" x="0" y="0" width="38" height="42" filterUnits="userSpaceOnUse" color-interpolation-filters="sRGB">
<feFlood flood-opacity="0" result="BackgroundImageFix"/>
<feBlend mode="normal" in="SourceGraphic" in2="BackgroundImageFix" result="shape"/>
<feColorMatrix in="SourceAlpha" type="matrix" values="0 0 0 0 0 0 0 0 0 0 0 0 0 0 0 0 0 0 127 0" result="hardAlpha"/>
<feOffset dy="4"/>
<feGaussianBlur stdDeviation="2"/>
<feComposite in2="hardAlpha" operator="arithmetic" k2="-1" k3="1"/>
<feColorMatrix type="matrix" values="0 0 0 0 1 0 0 0 0 1 0 0 0 0 1 0 0 0 0.25 0"/>
<feBlend mode="normal" in2="shape" result="effect1_innerShadow_1505_146974"/>
</filter>
</defs>
</svg>
