<svg width="18" height="18" viewBox="0 0 18 18" fill="none" xmlns="http://www.w3.org/2000/svg">
<path fill-rule="evenodd" clip-rule="evenodd" d="M9.14474 2.00059C9.2826 2.39119 9.07772 2.81959 8.68712 2.95745L8.1902 3.13283C7.20708 3.47981 6.52879 3.72038 6.02325 3.96565C5.53486 4.2026 5.27675 4.41267 5.10074 4.66145C4.92473 4.91022 4.81253 5.22353 4.75164 5.76294C4.68861 6.32129 4.6875 7.04098 4.6875 8.08353V9.91688C4.6875 10.9594 4.68861 11.6791 4.75164 12.2375C4.81253 12.7769 4.92473 13.0902 5.10074 13.339C5.27675 13.5877 5.53486 13.7978 6.02325 14.0348C6.52879 14.28 7.20708 14.5206 8.1902 14.8676L8.68711 15.043C9.07771 15.1808 9.2826 15.6092 9.14474 15.9998C9.00689 16.3904 8.57849 16.5953 8.18789 16.4574L7.64992 16.2676C6.71775 15.9386 5.95909 15.6708 5.3685 15.3843C4.7521 15.0853 4.2512 14.7353 3.87623 14.2053C3.50126 13.6753 3.33796 13.0865 3.26111 12.4057C3.18747 11.7535 3.18748 10.9489 3.1875 9.96042V8.03999C3.18748 7.05148 3.18747 6.24696 3.26111 5.59467C3.33796 4.91389 3.50126 4.32507 3.87623 3.79509C4.2512 3.2651 4.7521 2.91515 5.3685 2.6161C5.95909 2.32957 6.71775 2.06182 7.64991 1.73284L8.18789 1.54296C8.57849 1.4051 9.00689 1.60999 9.14474 2.00059Z" fill="#707070"/>
<path d="M8.0625 9.75439C7.64829 9.75439 7.3125 9.41861 7.3125 9.00439C7.3125 8.59018 7.64829 8.25439 8.0625 8.25439L12.9375 8.25439L12.9375 7.8087L12.9375 7.80869C12.9374 7.67696 12.9373 7.51523 12.9539 7.3829L12.9542 7.38039C12.966 7.28556 13.0199 6.85353 13.4441 6.64776C13.8692 6.44154 14.2443 6.66799 14.3254 6.71698L14.6768 6.97134C14.9587 7.19231 15.3445 7.49658 15.6378 7.78191C15.7841 7.92428 15.935 8.08723 16.0542 8.26041C16.1601 8.41435 16.3125 8.677 16.3125 9C16.3125 9.323 16.1601 9.58565 16.0542 9.73959C15.935 9.91277 15.7841 10.0757 15.6378 10.2181C15.3445 10.5034 14.9587 10.8077 14.6768 11.0287L14.3254 11.283C14.2443 11.332 13.8692 11.5585 13.4441 11.3522C13.0199 11.1465 12.966 10.7144 12.9542 10.6196L12.9539 10.6171C12.9373 10.4848 12.9374 10.323 12.9375 10.1913L12.9375 9.75439L8.0625 9.75439Z" fill="#707070"/>
</svg>
