<svg width="26" height="26" viewBox="0 0 26 26" fill="none" xmlns="http://www.w3.org/2000/svg">
<rect width="26" height="26" rx="4" fill="#F2F3F5"/>
<g clip-path="url(#clip0_1508_147228)">
<path fill-rule="evenodd" clip-rule="evenodd" d="M14.6418 6.30308C14.4688 5.50717 13.744 4.9375 12.9178 4.9375C11.9694 4.9375 11.1546 5.68812 11.1546 6.66994V6.96223C11.0559 6.94528 10.9547 6.93647 10.852 6.93647C9.9036 6.93647 9.08882 7.6871 9.08882 8.66891V12.4822L8.08858 11.4137C7.5931 10.8409 6.78111 10.6588 6.08751 10.9464C5.44079 11.2146 5.08943 11.8018 4.97893 12.3667C4.86916 12.9278 4.97152 13.5753 5.358 14.0773C6.13791 15.0904 6.95368 16.4982 7.62628 17.7698C8.66598 19.7355 10.7216 21.0625 13.0228 21.0625C13.4261 21.0625 13.7531 20.7343 13.7531 20.3295C13.7531 19.9247 13.4261 19.5966 13.0228 19.5966C11.2884 19.5966 9.71524 18.593 8.91632 17.0825C8.23411 15.7927 7.37172 14.2955 6.51374 13.1811C6.42162 13.0614 6.37106 12.8589 6.41211 12.6491C6.45242 12.443 6.55562 12.3384 6.64526 12.3012C6.77208 12.2486 6.91302 12.2886 6.98793 12.3774C6.99605 12.387 7.00441 12.3964 7.01302 12.4056L8.68628 14.193C9.31082 14.8601 10.5494 14.495 10.5494 13.4676V8.66891C10.5494 8.54673 10.6595 8.40238 10.852 8.40238C11.0445 8.40238 11.1546 8.54673 11.1546 8.66891V11.1676C11.1546 11.5724 11.4816 11.9006 11.8849 11.9006C12.2882 11.9006 12.6151 11.5724 12.6151 11.1676V6.66994C12.6151 6.54775 12.7253 6.40341 12.9178 6.40341C13.1103 6.40341 13.2204 6.54775 13.2204 6.66994V11.1676C13.2204 11.5724 13.5473 11.9006 13.9507 11.9006C14.354 11.9006 14.6809 11.5724 14.6809 11.1676V8.00259C14.6809 7.8804 14.791 7.73606 14.9836 7.73606C15.1761 7.73606 15.2862 7.8804 15.2862 8.00259V11.1676C15.2862 11.5724 15.6131 11.9006 16.0164 11.9006C16.4198 11.9006 16.7467 11.5724 16.7467 11.1676V10.0016C16.7467 9.87937 16.8568 9.73503 17.0493 9.73503C17.2419 9.73503 17.352 9.87937 17.352 10.0016C17.352 10.4064 17.6789 10.7345 18.0822 10.7345C18.4855 10.7345 18.8125 10.4064 18.8125 10.0016C18.8125 9.01974 17.9977 8.26912 17.0493 8.26912C16.9466 8.26912 16.8454 8.27793 16.7467 8.29488V8.00259C16.7467 7.02077 15.9319 6.27015 14.9836 6.27015C14.8672 6.27015 14.7529 6.28145 14.6418 6.30308Z" fill="#707070"/>
<path d="M17.125 12.4375C16.7934 12.4375 16.4829 12.5514 16.1123 12.6875L14.8477 13.1504C14.3985 13.3141 14.0219 13.451 13.7451 13.7139C13.5754 13.8751 13.4386 14.0678 13.3428 14.2812C13.1858 14.6311 13.1868 15.0296 13.1875 15.4961C13.1874 16.3179 13.1865 17.3055 13.3174 17.791C13.4788 18.3891 13.785 18.9396 14.208 19.3965C14.5509 19.7668 14.9953 20.0498 15.7021 20.5C15.9922 20.6852 16.3592 20.9198 16.626 20.9941C16.9519 21.085 17.2971 21.085 17.623 20.9941C17.8898 20.9198 18.2569 20.6852 18.5469 20.5C19.2537 20.0497 19.6981 19.7668 20.041 19.3965C20.4641 18.9396 20.7703 18.3891 20.9316 17.791C21.0625 17.3056 21.0626 16.3179 21.0625 15.4961C21.0632 15.0296 21.0633 14.6311 20.9062 14.2812C20.8104 14.0678 20.6737 13.8751 20.5039 13.7139C20.2271 13.4511 19.8505 13.3141 19.4014 13.1504L18.1367 12.6875C17.7664 12.5515 17.4564 12.4376 17.125 12.4375ZM17.8096 15.2734C18.0036 15.0308 18.358 14.9915 18.6006 15.1855C18.8432 15.3796 18.8825 15.734 18.6885 15.9766L17.6943 17.2188C17.5878 17.3521 17.4743 17.4936 17.3633 17.5986C17.2344 17.7205 17.042 17.8599 16.7705 17.875C16.4989 17.8901 16.292 17.7729 16.1504 17.666L15.6016 17.1475C15.3822 16.9278 15.3822 16.5722 15.6016 16.3525C15.8212 16.1329 16.1778 16.1329 16.3975 16.3525L16.7031 16.6562C16.7078 16.6505 16.7839 16.5567 16.834 16.4941L17.8096 15.2734Z" fill="#707070"/>
</g>
<defs>
<clipPath id="clip0_1508_147228">
<rect width="18" height="18" fill="white" transform="translate(4 4)"/>
</clipPath>
</defs>
</svg>
