<svg width="18" height="18" viewBox="0 0 18 18" fill="none" xmlns="http://www.w3.org/2000/svg">
<g clip-path="url(#clip0_1433_146200)">
<path fill-rule="evenodd" clip-rule="evenodd" d="M10.6418 2.30308C10.4688 1.50717 9.74397 0.9375 8.91777 0.9375C7.96938 0.9375 7.1546 1.68812 7.1546 2.66994V2.96223C7.05588 2.94528 6.95471 2.93647 6.85198 2.93647C5.9036 2.93647 5.08882 3.6871 5.08882 4.66891V8.48217L4.08858 7.41372C3.5931 6.84095 2.78111 6.65876 2.08751 6.94641C1.44079 7.21461 1.08943 7.80182 0.978929 8.36667C0.869161 8.92777 0.971522 9.57533 1.358 10.0773C2.13791 11.0904 2.95368 12.4982 3.62628 13.7698C4.66598 15.7355 6.72164 17.0625 9.02282 17.0625C9.42613 17.0625 9.75309 16.7343 9.75309 16.3295C9.75309 15.9247 9.42613 15.5966 9.02282 15.5966C7.28844 15.5966 5.71524 14.593 4.91632 13.0825C4.23411 11.7927 3.37172 10.2955 2.51374 9.18105C2.42162 9.06139 2.37106 8.85895 2.41211 8.64911C2.45242 8.44304 2.55562 8.33839 2.64526 8.30122C2.77208 8.24862 2.91302 8.28857 2.98793 8.37737C2.99605 8.38699 3.00441 8.39639 3.01302 8.40558L4.68628 10.193C5.31082 10.8601 6.54937 10.495 6.54937 9.46759V4.66891C6.54937 4.54673 6.65947 4.40238 6.85198 4.40238C7.0445 4.40238 7.1546 4.54673 7.1546 4.66891V7.16761C7.1546 7.57241 7.48156 7.90057 7.88488 7.90057C8.2882 7.90057 8.61515 7.57241 8.61515 7.16761V2.66994C8.61515 2.54775 8.72525 2.40341 8.91777 2.40341C9.11028 2.40341 9.22039 2.54775 9.22039 2.66994V7.16761C9.22039 7.57241 9.54734 7.90057 9.95066 7.90057C10.354 7.90057 10.6809 7.57241 10.6809 7.16761V4.00259C10.6809 3.8804 10.791 3.73606 10.9836 3.73606C11.1761 3.73606 11.2862 3.8804 11.2862 4.00259V7.16761C11.2862 7.57241 11.6131 7.90057 12.0164 7.90057C12.4198 7.90057 12.7467 7.57241 12.7467 7.16761V6.00156C12.7467 5.87937 12.8568 5.73503 13.0493 5.73503C13.2419 5.73503 13.352 5.87937 13.352 6.00156C13.352 6.40636 13.6789 6.73451 14.0822 6.73451C14.4855 6.73451 14.8125 6.40636 14.8125 6.00156C14.8125 5.01974 13.9977 4.26912 13.0493 4.26912C12.9466 4.26912 12.8454 4.27793 12.7467 4.29488V4.00259C12.7467 3.02077 11.9319 2.27015 10.9836 2.27015C10.8672 2.27015 10.7529 2.28145 10.6418 2.30308Z" fill="#1785CF"/>
<path d="M13.125 8.4375C12.7934 8.4375 12.4829 8.55139 12.1123 8.6875L10.8477 9.15039C10.3985 9.31412 10.0219 9.45101 9.74512 9.71387C9.57536 9.87507 9.43861 10.0678 9.34277 10.2812C9.18576 10.6311 9.18681 11.0296 9.1875 11.4961C9.18736 12.3179 9.18655 13.3055 9.31738 13.791C9.47875 14.3891 9.785 14.9396 10.208 15.3965C10.5509 15.7668 10.9953 16.0498 11.7021 16.5C11.9922 16.6852 12.3592 16.9198 12.626 16.9941C12.9519 17.085 13.2971 17.085 13.623 16.9941C13.8898 16.9198 14.2569 16.6852 14.5469 16.5C15.2537 16.0497 15.6981 15.7668 16.041 15.3965C16.4641 14.9396 16.7703 14.3891 16.9316 13.791C17.0625 13.3056 17.0626 12.3179 17.0625 11.4961C17.0632 11.0296 17.0633 10.6311 16.9062 10.2812C16.8104 10.0678 16.6737 9.87506 16.5039 9.71387C16.2271 9.45106 15.8505 9.3141 15.4014 9.15039L14.1367 8.6875C13.7664 8.55148 13.4564 8.43759 13.125 8.4375ZM13.8096 11.2734C14.0036 11.0308 14.358 10.9915 14.6006 11.1855C14.8432 11.3796 14.8825 11.734 14.6885 11.9766L13.6943 13.2188C13.5878 13.3521 13.4743 13.4936 13.3633 13.5986C13.2344 13.7205 13.042 13.8599 12.7705 13.875C12.4989 13.8901 12.292 13.7729 12.1504 13.666L11.6016 13.1475C11.3822 12.9278 11.3822 12.5722 11.6016 12.3525C11.8212 12.1329 12.1778 12.1329 12.3975 12.3525L12.7031 12.6562C12.7078 12.6505 12.7839 12.5567 12.834 12.4941L13.8096 11.2734Z" fill="#1785CF"/>
</g>
<defs>
<clipPath id="clip0_1433_146200">
<rect width="18" height="18" fill="white"/>
</clipPath>
</defs>
</svg>
