<svg width="26" height="26" viewBox="0 0 26 26" fill="none" xmlns="http://www.w3.org/2000/svg">
<rect width="26" height="26" rx="4" fill="#F2F3F5"/>
<path d="M15.4736 5.50781C15.6869 5.4793 15.8669 5.54034 15.9893 5.59375C16.1017 5.64283 16.2285 5.71469 16.3516 5.78418L18.0381 6.75098C18.1474 6.82833 18.296 6.95115 18.3809 7.15039C18.4734 7.36773 18.4429 7.58697 18.4209 7.71387C18.3971 7.85111 18.348 8.04085 18.3008 8.22168C18.0038 9.35908 18.7295 10.5824 19.9043 10.8975L19.9258 10.9033C20.1034 10.9509 20.2702 10.996 20.4004 11.043C20.5223 11.087 20.7258 11.1694 20.8691 11.3555C21.001 11.5266 21.036 11.714 21.0498 11.8467C21.0625 11.969 21.0625 12.1154 21.0625 12.2578V13.7422C21.0625 13.8847 21.0625 14.0318 21.0498 14.1543C21.036 14.287 21.001 14.4745 20.8691 14.6455C20.7257 14.8316 20.5223 14.914 20.4004 14.958C20.2701 15.005 19.9043 15.1025 19.9043 15.1025C18.7297 15.4175 18.0044 16.6416 18.3018 17.7793C18.3029 17.7837 18.3992 18.1497 18.4229 18.2861C18.4449 18.4129 18.4743 18.6321 18.3818 18.8496C18.2971 19.0489 18.1494 19.1726 18.04 19.25L16.3525 20.2158C16.2295 20.2853 16.1027 20.3572 15.9902 20.4062C15.8678 20.4597 15.6879 20.5217 15.4746 20.4932C15.2427 20.4621 15.0705 20.3297 14.9717 20.2471C14.8682 20.1605 14.6111 19.9049 14.6035 19.8975C14.1659 19.4635 13.5828 19.2463 13 19.2461C12.4172 19.2463 11.8341 19.4635 11.3965 19.8975C11.3888 19.9051 11.1318 20.1605 11.0283 20.2471C10.9295 20.3297 10.7573 20.4621 10.5254 20.4932C10.3121 20.5217 10.1322 20.4597 10.0098 20.4062C9.8973 20.3572 9.77053 20.2853 9.64746 20.2158L7.95996 19.25C7.8506 19.1726 7.70295 19.0489 7.61816 18.8496C7.52575 18.6321 7.55515 18.4129 7.57715 18.2861C7.60082 18.1497 7.69706 17.7838 7.69824 17.7793C7.99559 16.6416 7.27027 15.4175 6.0957 15.1025C6.0957 15.1025 5.7299 15.005 5.59961 14.958C5.47769 14.914 5.27427 14.8316 5.13086 14.6455C4.99904 14.4745 4.96398 14.287 4.9502 14.1543C4.9375 14.0318 4.93747 13.8847 4.9375 13.7422V12.2578C4.93747 12.1154 4.93751 11.969 4.9502 11.8467C4.96396 11.714 4.99903 11.5266 5.13086 11.3555C5.27423 11.1695 5.47766 11.087 5.59961 11.043C5.7298 10.996 5.89658 10.9509 6.07422 10.9033L6.0957 10.8975C7.27053 10.5824 7.99617 9.35908 7.69922 8.22168C7.65196 8.04085 7.6029 7.85111 7.5791 7.71387C7.55711 7.58697 7.52665 7.36773 7.61914 7.15039C7.70396 6.95114 7.85257 6.82833 7.96191 6.75098L9.64844 5.78418C9.77151 5.71469 9.89828 5.64283 10.0107 5.59375C10.1331 5.54034 10.3131 5.4793 10.5264 5.50781C10.7582 5.53886 10.9305 5.67128 11.0293 5.75391C11.1344 5.84184 11.3984 6.10352 11.3984 6.10352C11.8357 6.53685 12.4178 6.75374 13 6.75391C13.5822 6.75374 14.1643 6.53684 14.6016 6.10352C14.6016 6.10352 14.8656 5.84185 14.9707 5.75391C15.0695 5.67128 15.2418 5.53886 15.4736 5.50781ZM13 10.375C11.5504 10.375 10.3752 11.5504 10.375 13C10.375 14.4497 11.5503 15.625 13 15.625C14.4497 15.625 15.625 14.4497 15.625 13C15.6248 11.5504 14.4496 10.375 13 10.375Z" fill="#707070"/>
</svg>
