<svg width="18" height="18" viewBox="0 0 18 18" fill="none" xmlns="http://www.w3.org/2000/svg">
<path d="M11.4736 1.50781C11.6869 1.4793 11.8669 1.54034 11.9893 1.59375C12.1017 1.64283 12.2285 1.71469 12.3516 1.78418L14.0381 2.75098C14.1474 2.82833 14.296 2.95115 14.3809 3.15039C14.4734 3.36773 14.4429 3.58697 14.4209 3.71387C14.3971 3.85111 14.348 4.04085 14.3008 4.22168C14.0038 5.35908 14.7295 6.58237 15.9043 6.89746L15.9258 6.90332C16.1034 6.95091 16.2702 6.99603 16.4004 7.04297C16.5223 7.08696 16.7258 7.16945 16.8691 7.35547C17.001 7.52659 17.036 7.71395 17.0498 7.84668C17.0625 7.96904 17.0625 8.1154 17.0625 8.25781V9.74219C17.0625 9.8847 17.0625 10.0318 17.0498 10.1543C17.036 10.287 17.001 10.4745 16.8691 10.6455C16.7257 10.8316 16.5223 10.914 16.4004 10.958C16.2701 11.005 15.9043 11.1025 15.9043 11.1025C14.7297 11.4175 14.0044 12.6416 14.3018 13.7793C14.3029 13.7837 14.3992 14.1497 14.4229 14.2861C14.4449 14.4129 14.4743 14.6321 14.3818 14.8496C14.2971 15.0489 14.1494 15.1726 14.04 15.25L12.3525 16.2158C12.2295 16.2853 12.1027 16.3572 11.9902 16.4062C11.8678 16.4597 11.6879 16.5217 11.4746 16.4932C11.2427 16.4621 11.0705 16.3297 10.9717 16.2471C10.8682 16.1605 10.6111 15.9049 10.6035 15.8975C10.1659 15.4635 9.5828 15.2463 9 15.2461C8.4172 15.2463 7.83406 15.4635 7.39648 15.8975C7.38883 15.9051 7.13179 16.1605 7.02832 16.2471C6.92948 16.3297 6.75727 16.4621 6.52539 16.4932C6.31211 16.5217 6.13219 16.4597 6.00977 16.4062C5.8973 16.3572 5.77053 16.2853 5.64746 16.2158L3.95996 15.25C3.8506 15.1726 3.70295 15.0489 3.61816 14.8496C3.52575 14.6321 3.55515 14.4129 3.57715 14.2861C3.60082 14.1497 3.69706 13.7838 3.69824 13.7793C3.99559 12.6416 3.27027 11.4175 2.0957 11.1025C2.0957 11.1025 1.7299 11.005 1.59961 10.958C1.47769 10.914 1.27427 10.8316 1.13086 10.6455C0.999041 10.4745 0.963978 10.287 0.950195 10.1543C0.937501 10.0318 0.937468 9.88471 0.9375 9.74219V8.25781C0.937468 8.1154 0.937511 7.96904 0.950195 7.84668C0.963956 7.71396 0.999035 7.52659 1.13086 7.35547C1.27423 7.16945 1.47766 7.08696 1.59961 7.04297C1.7298 6.99603 1.89658 6.95091 2.07422 6.90332L2.0957 6.89746C3.27053 6.58237 3.99617 5.35908 3.69922 4.22168C3.65196 4.04085 3.6029 3.85111 3.5791 3.71387C3.55711 3.58697 3.52665 3.36773 3.61914 3.15039C3.70396 2.95114 3.85257 2.82833 3.96191 2.75098L5.64844 1.78418C5.77151 1.71469 5.89828 1.64283 6.01074 1.59375C6.13313 1.54034 6.31314 1.4793 6.52637 1.50781C6.75824 1.53886 6.93046 1.67128 7.0293 1.75391C7.13441 1.84184 7.39844 2.10352 7.39844 2.10352C7.83568 2.53685 8.41783 2.75374 9 2.75391C9.58217 2.75374 10.1643 2.53684 10.6016 2.10352C10.6016 2.10352 10.8656 1.84185 10.9707 1.75391C11.0695 1.67128 11.2418 1.53886 11.4736 1.50781ZM9 6.375C7.55036 6.375 6.37518 7.5504 6.375 9C6.375 10.4497 7.55025 11.625 9 11.625C10.4497 11.625 11.625 10.4497 11.625 9C11.6248 7.5504 10.4496 6.375 9 6.375Z" fill="#1785CF"/>
</svg>
