<svg width="18" height="18" viewBox="0 0 18 18" fill="none" xmlns="http://www.w3.org/2000/svg">
<path d="M1.92773 9.97754C3.03568 9.23536 4.35691 9.01615 5.59082 9.32031C5.88175 9.39205 6.02718 9.42803 6.04004 9.53027C6.05275 9.6324 5.91143 9.7084 5.62793 9.86035C5.41262 9.97575 5.20097 10.0965 5.0459 10.1924C4.67497 10.4093 3.97644 10.818 3.47168 11.3311C3.14597 11.6621 2.71746 12.2127 2.6377 12.9697C2.61308 13.2036 2.62476 13.428 2.66504 13.6406C2.7053 13.8532 2.72472 13.9598 2.6709 14.0156C2.61704 14.071 2.52751 14.0575 2.34863 14.0303C1.58077 13.9134 1.06158 13.4945 0.635742 13.0381C0.3174 12.6968 0.152577 12.3045 0.193359 11.8848C0.23165 11.4907 0.44263 11.1735 0.65332 10.9414C0.985931 10.5751 1.47593 10.264 1.76953 10.0781C1.8322 10.0384 1.88643 10.0052 1.92773 9.97754ZM4.5 3.9375C4.62414 3.9375 4.74609 3.94694 4.86523 3.96484C5.00727 3.9862 5.07863 3.99683 5.11523 4.05566C5.15178 4.11477 5.12614 4.1936 5.0752 4.35059C4.94498 4.7519 4.875 5.18029 4.875 5.625C4.875 6.55489 5.18302 7.41264 5.70215 8.10254C5.8012 8.23416 5.85022 8.30045 5.83496 8.36816C5.81966 8.43582 5.75619 8.46949 5.62891 8.53613C5.29143 8.71279 4.90732 8.81249 4.5 8.8125C3.15381 8.8125 2.0625 7.72119 2.0625 6.375C2.0625 5.02881 3.15381 3.9375 4.5 3.9375Z" fill="#1785CF"/>
<path d="M12.4092 9.32031C13.6431 9.01611 14.9643 9.23533 16.0723 9.97754C16.1136 10.0052 16.1678 10.0384 16.2305 10.0781C16.5241 10.264 17.0141 10.5751 17.3467 10.9414C17.5574 11.1735 17.7683 11.4906 17.8066 11.8848C17.8474 12.3046 17.6826 12.6968 17.3643 13.0381C16.9384 13.4945 16.4192 13.9134 15.6514 14.0303C15.4725 14.0575 15.3829 14.0711 15.3291 14.0156C15.2753 13.9598 15.2947 13.8532 15.335 13.6406C15.3752 13.428 15.3869 13.2036 15.3623 12.9697C15.2825 12.2127 14.854 11.6621 14.5283 11.3311C14.0236 10.818 13.325 10.4092 12.9541 10.1924C12.7991 10.0965 12.5882 9.97569 12.373 9.86035C12.0893 9.70825 11.9473 9.63244 11.96 9.53027C11.9728 9.42803 12.1183 9.39205 12.4092 9.32031ZM13.5 3.9375C14.8462 3.9375 15.9375 5.02881 15.9375 6.375C15.9375 7.72119 14.8462 8.8125 13.5 8.8125C13.0927 8.81248 12.7086 8.7128 12.3711 8.53613C12.2438 8.46949 12.1803 8.43582 12.165 8.36816C12.1498 8.30045 12.1988 8.23416 12.2979 8.10254C12.817 7.41263 13.125 6.5549 13.125 5.625C13.125 5.18028 13.055 4.7519 12.9248 4.35059C12.8739 4.1936 12.8482 4.11477 12.8848 4.05566C12.9214 3.9968 12.9927 3.98621 13.1348 3.96484C13.2539 3.94693 13.3759 3.93751 13.5 3.9375Z" fill="#1785CF"/>
<path d="M5.76909 10.855C7.74742 9.63168 10.2567 9.63168 12.235 10.855C12.2934 10.891 12.3672 10.9343 12.4521 10.9839C12.8363 11.2087 13.4462 11.5656 13.8624 11.9887C14.1238 12.2544 14.3845 12.6166 14.432 13.0681C14.4829 13.5512 14.2778 13.9984 13.8867 14.3854C13.2404 15.0248 12.4399 15.5625 11.3903 15.5625H6.61378C5.56419 15.5625 4.76369 15.0248 4.11748 14.3854C3.7263 13.9984 3.52125 13.5512 3.5721 13.0681C3.61963 12.6166 3.88033 12.2544 4.14173 11.9887C4.5579 11.5656 5.16779 11.2087 5.552 10.9839C5.63689 10.9343 5.71076 10.891 5.76909 10.855Z" fill="#1785CF"/>
<path d="M5.81445 5.625C5.81445 3.86459 7.24155 2.4375 9.00195 2.4375C10.7624 2.4375 12.1895 3.86459 12.1895 5.625C12.1895 7.38541 10.7624 8.8125 9.00195 8.8125C7.24155 8.8125 5.81445 7.38541 5.81445 5.625Z" fill="#1785CF"/>
</svg>
