<svg width="26" height="26" viewBox="0 0 26 26" fill="none" xmlns="http://www.w3.org/2000/svg">
<rect width="26" height="26" rx="4" fill="#F2F3F5"/>
<path d="M5.92773 13.9775C7.03568 13.2354 8.35691 13.0162 9.59082 13.3203C9.88175 13.3921 10.0272 13.428 10.04 13.5303C10.0527 13.6324 9.91143 13.7084 9.62793 13.8604C9.41262 13.9758 9.20097 14.0965 9.0459 14.1924C8.67497 14.4093 7.97644 14.818 7.47168 15.3311C7.14597 15.6621 6.71746 16.2127 6.6377 16.9697C6.61308 17.2036 6.62476 17.428 6.66504 17.6406C6.7053 17.8532 6.72472 17.9598 6.6709 18.0156C6.61704 18.071 6.52751 18.0575 6.34863 18.0303C5.58077 17.9134 5.06158 17.4945 4.63574 17.0381C4.3174 16.6968 4.15258 16.3045 4.19336 15.8848C4.23165 15.4907 4.44263 15.1735 4.65332 14.9414C4.98593 14.5751 5.47593 14.264 5.76953 14.0781C5.8322 14.0384 5.88643 14.0052 5.92773 13.9775ZM8.5 7.9375C8.62414 7.9375 8.74609 7.94694 8.86523 7.96484C9.00727 7.9862 9.07863 7.99683 9.11523 8.05566C9.15178 8.11477 9.12614 8.1936 9.0752 8.35059C8.94498 8.7519 8.875 9.18029 8.875 9.625C8.875 10.5549 9.18302 11.4126 9.70215 12.1025C9.8012 12.2342 9.85022 12.3005 9.83496 12.3682C9.81966 12.4358 9.75619 12.4695 9.62891 12.5361C9.29143 12.7128 8.90732 12.8125 8.5 12.8125C7.15381 12.8125 6.0625 11.7212 6.0625 10.375C6.0625 9.02881 7.15381 7.9375 8.5 7.9375Z" fill="#707070"/>
<path d="M16.4092 13.3203C17.6431 13.0161 18.9643 13.2353 20.0723 13.9775C20.1136 14.0052 20.1678 14.0384 20.2305 14.0781C20.5241 14.264 21.0141 14.5751 21.3467 14.9414C21.5574 15.1735 21.7683 15.4906 21.8066 15.8848C21.8474 16.3046 21.6826 16.6968 21.3643 17.0381C20.9384 17.4945 20.4192 17.9134 19.6514 18.0303C19.4725 18.0575 19.3829 18.0711 19.3291 18.0156C19.2753 17.9598 19.2947 17.8532 19.335 17.6406C19.3752 17.428 19.3869 17.2036 19.3623 16.9697C19.2825 16.2127 18.854 15.6621 18.5283 15.3311C18.0236 14.818 17.325 14.4092 16.9541 14.1924C16.7991 14.0965 16.5882 13.9757 16.373 13.8604C16.0893 13.7083 15.9473 13.6324 15.96 13.5303C15.9728 13.428 16.1183 13.3921 16.4092 13.3203ZM17.5 7.9375C18.8462 7.9375 19.9375 9.02881 19.9375 10.375C19.9375 11.7212 18.8462 12.8125 17.5 12.8125C17.0927 12.8125 16.7086 12.7128 16.3711 12.5361C16.2438 12.4695 16.1803 12.4358 16.165 12.3682C16.1498 12.3005 16.1988 12.2342 16.2979 12.1025C16.817 11.4126 17.125 10.5549 17.125 9.625C17.125 9.18028 17.055 8.7519 16.9248 8.35059C16.8739 8.1936 16.8482 8.11477 16.8848 8.05566C16.9214 7.9968 16.9927 7.98621 17.1348 7.96484C17.2539 7.94693 17.3759 7.93751 17.5 7.9375Z" fill="#707070"/>
<path d="M9.76909 14.855C11.7474 13.6317 14.2567 13.6317 16.235 14.855C16.2934 14.891 16.3672 14.9343 16.4521 14.9839C16.8363 15.2087 17.4462 15.5656 17.8624 15.9887C18.1238 16.2544 18.3845 16.6166 18.432 17.0681C18.4829 17.5512 18.2778 17.9984 17.8867 18.3854C17.2404 19.0248 16.4399 19.5625 15.3903 19.5625H10.6138C9.56419 19.5625 8.76369 19.0248 8.11748 18.3854C7.7263 17.9984 7.52125 17.5512 7.5721 17.0681C7.61963 16.6166 7.88033 16.2544 8.14173 15.9887C8.5579 15.5656 9.16779 15.2087 9.552 14.9839C9.63689 14.9343 9.71076 14.891 9.76909 14.855Z" fill="#707070"/>
<path d="M9.81445 9.625C9.81445 7.86459 11.2415 6.4375 13.002 6.4375C14.7624 6.4375 16.1895 7.86459 16.1895 9.625C16.1895 11.3854 14.7624 12.8125 13.002 12.8125C11.2415 12.8125 9.81445 11.3854 9.81445 9.625Z" fill="#707070"/>
</svg>
